<mxfile host="app.diagrams.net" agent="Mozilla/5.0 (X11; Linux x86_64) AppleWebKit/537.36 (KHTML, like Gecko) Chrome/129.0.0.0 Safari/537.36" version="24.7.17">
  <diagram id="C5RBs43oDa-KdzZeNtuy" name="Page-1">
    <mxGraphModel dx="1803" dy="1021" grid="1" gridSize="10" guides="1" tooltips="1" connect="1" arrows="1" fold="1" page="1" pageScale="1" pageWidth="827" pageHeight="1169" math="0" shadow="0">
      <root>
        <mxCell id="WIyWlLk6GJQsqaUBKTNV-0" />
        <mxCell id="WIyWlLk6GJQsqaUBKTNV-1" parent="WIyWlLk6GJQsqaUBKTNV-0" />
        <mxCell id="wpcpHTcB4ovZIHiMq7sZ-0" value="&lt;div&gt;ESERCIZIO DEL LABIRINTO&lt;/div&gt;&lt;div&gt;&lt;br&gt;&lt;/div&gt;&lt;div style=&quot;text-align: left;&quot;&gt;&lt;span style=&quot;background-color: initial;&quot;&gt;1. Inizio da cella 6I&lt;/span&gt;&lt;/div&gt;&lt;div style=&quot;text-align: left;&quot;&gt;2. Sugli 0 e’ possibile muoversi, mentre gli 1 rappresentano I muri&lt;/div&gt;&lt;div style=&quot;text-align: left;&quot;&gt;3. Inserimento dell’indicatore direzionale, uno compreso tra su, giu’, destra e sinistra&lt;br&gt;&lt;/div&gt;&lt;div style=&quot;text-align: left;&quot;&gt;4. Verifica se l’indicatore di movimento scelto porti a 0, se falso rimani dove sei e passa al punto 6&lt;br&gt;&lt;/div&gt;&lt;div style=&quot;text-align: left;&quot;&gt;5. Se vero, verifica se la casella in cui ci si e’ spostati combaci con 33AG (fine percorso).&amp;nbsp;&lt;/div&gt;&lt;div style=&quot;text-align: left;&quot;&gt;Se quest’ultima corrisponde, hai vinto e passa al punto 7&lt;br&gt;&lt;/div&gt;&lt;div style=&quot;text-align: left;&quot;&gt;6. Visualizzazione del risultato della verifica e torna al punto 3&lt;br&gt;&lt;/div&gt;&lt;div style=&quot;text-align: left;&quot;&gt;7. Fine&lt;br&gt;&lt;/div&gt;" style="text;html=1;align=center;verticalAlign=middle;resizable=0;points=[];autosize=1;strokeColor=none;fillColor=none;" vertex="1" parent="WIyWlLk6GJQsqaUBKTNV-1">
          <mxGeometry x="144" y="50" width="540" height="160" as="geometry" />
        </mxCell>
        <mxCell id="wpcpHTcB4ovZIHiMq7sZ-3" value="" style="edgeStyle=orthogonalEdgeStyle;rounded=0;orthogonalLoop=1;jettySize=auto;html=1;" edge="1" parent="WIyWlLk6GJQsqaUBKTNV-1" source="wpcpHTcB4ovZIHiMq7sZ-1" target="wpcpHTcB4ovZIHiMq7sZ-2">
          <mxGeometry relative="1" as="geometry" />
        </mxCell>
        <mxCell id="wpcpHTcB4ovZIHiMq7sZ-1" value="Inizio da cella 6I" style="ellipse;whiteSpace=wrap;html=1;" vertex="1" parent="WIyWlLk6GJQsqaUBKTNV-1">
          <mxGeometry x="369" y="230" width="90" height="50" as="geometry" />
        </mxCell>
        <mxCell id="wpcpHTcB4ovZIHiMq7sZ-5" value="" style="edgeStyle=orthogonalEdgeStyle;rounded=0;orthogonalLoop=1;jettySize=auto;html=1;" edge="1" parent="WIyWlLk6GJQsqaUBKTNV-1" source="wpcpHTcB4ovZIHiMq7sZ-2" target="wpcpHTcB4ovZIHiMq7sZ-4">
          <mxGeometry relative="1" as="geometry" />
        </mxCell>
        <mxCell id="wpcpHTcB4ovZIHiMq7sZ-2" value="Cella iniziale = 6I&lt;div&gt;Cella finale = 33AG&lt;/div&gt;&lt;div&gt;Cella di stato = 5I&lt;/div&gt;&lt;div&gt;Cella di destinazione = 0&lt;/div&gt;&lt;div&gt;Percorso = 0&lt;/div&gt;&lt;div&gt;Muri = 1&lt;/div&gt;&lt;div&gt;Indicatori direzionali = su, giu, destra, sinistra&lt;/div&gt;" style="whiteSpace=wrap;html=1;" vertex="1" parent="WIyWlLk6GJQsqaUBKTNV-1">
          <mxGeometry x="290.5" y="300" width="247" height="110" as="geometry" />
        </mxCell>
        <mxCell id="wpcpHTcB4ovZIHiMq7sZ-9" value="" style="edgeStyle=orthogonalEdgeStyle;rounded=0;orthogonalLoop=1;jettySize=auto;html=1;" edge="1" parent="WIyWlLk6GJQsqaUBKTNV-1" source="wpcpHTcB4ovZIHiMq7sZ-4" target="wpcpHTcB4ovZIHiMq7sZ-8">
          <mxGeometry relative="1" as="geometry" />
        </mxCell>
        <mxCell id="wpcpHTcB4ovZIHiMq7sZ-4" value="Inserimento Indicatori direzionali&lt;div&gt;(singolo input)&lt;/div&gt;" style="shape=parallelogram;perimeter=parallelogramPerimeter;whiteSpace=wrap;html=1;fixedSize=1;" vertex="1" parent="WIyWlLk6GJQsqaUBKTNV-1">
          <mxGeometry x="342" y="450" width="144" height="60" as="geometry" />
        </mxCell>
        <mxCell id="wpcpHTcB4ovZIHiMq7sZ-11" value="" style="edgeStyle=orthogonalEdgeStyle;rounded=0;orthogonalLoop=1;jettySize=auto;html=1;" edge="1" parent="WIyWlLk6GJQsqaUBKTNV-1" source="wpcpHTcB4ovZIHiMq7sZ-8" target="wpcpHTcB4ovZIHiMq7sZ-10">
          <mxGeometry relative="1" as="geometry" />
        </mxCell>
        <mxCell id="wpcpHTcB4ovZIHiMq7sZ-8" value="Cella di destinazione =&amp;nbsp;&lt;div&gt;Cella indicata dall&#39;indicatore direzionale&lt;/div&gt;" style="whiteSpace=wrap;html=1;" vertex="1" parent="WIyWlLk6GJQsqaUBKTNV-1">
          <mxGeometry x="354" y="540" width="120" height="75" as="geometry" />
        </mxCell>
        <mxCell id="wpcpHTcB4ovZIHiMq7sZ-13" value="" style="edgeStyle=orthogonalEdgeStyle;rounded=0;orthogonalLoop=1;jettySize=auto;html=1;" edge="1" parent="WIyWlLk6GJQsqaUBKTNV-1" source="wpcpHTcB4ovZIHiMq7sZ-10" target="wpcpHTcB4ovZIHiMq7sZ-12">
          <mxGeometry relative="1" as="geometry" />
        </mxCell>
        <mxCell id="wpcpHTcB4ovZIHiMq7sZ-14" value="False" style="edgeLabel;html=1;align=center;verticalAlign=middle;resizable=0;points=[];" vertex="1" connectable="0" parent="wpcpHTcB4ovZIHiMq7sZ-13">
          <mxGeometry x="-0.1551" y="3" relative="1" as="geometry">
            <mxPoint as="offset" />
          </mxGeometry>
        </mxCell>
        <mxCell id="wpcpHTcB4ovZIHiMq7sZ-17" value="" style="edgeStyle=orthogonalEdgeStyle;rounded=0;orthogonalLoop=1;jettySize=auto;html=1;" edge="1" parent="WIyWlLk6GJQsqaUBKTNV-1" source="wpcpHTcB4ovZIHiMq7sZ-10" target="wpcpHTcB4ovZIHiMq7sZ-16">
          <mxGeometry relative="1" as="geometry" />
        </mxCell>
        <mxCell id="wpcpHTcB4ovZIHiMq7sZ-18" value="True" style="edgeLabel;html=1;align=center;verticalAlign=middle;resizable=0;points=[];" vertex="1" connectable="0" parent="wpcpHTcB4ovZIHiMq7sZ-17">
          <mxGeometry x="-0.3755" y="1" relative="1" as="geometry">
            <mxPoint as="offset" />
          </mxGeometry>
        </mxCell>
        <mxCell id="wpcpHTcB4ovZIHiMq7sZ-10" value="Cella di destinazione == 0" style="rhombus;whiteSpace=wrap;html=1;" vertex="1" parent="WIyWlLk6GJQsqaUBKTNV-1">
          <mxGeometry x="374" y="650" width="80" height="80" as="geometry" />
        </mxCell>
        <mxCell id="wpcpHTcB4ovZIHiMq7sZ-15" style="edgeStyle=orthogonalEdgeStyle;rounded=0;orthogonalLoop=1;jettySize=auto;html=1;exitX=0.5;exitY=0;exitDx=0;exitDy=0;" edge="1" parent="WIyWlLk6GJQsqaUBKTNV-1" source="wpcpHTcB4ovZIHiMq7sZ-12">
          <mxGeometry relative="1" as="geometry">
            <mxPoint x="420" y="430" as="targetPoint" />
            <Array as="points">
              <mxPoint x="587" y="430" />
              <mxPoint x="464" y="430" />
            </Array>
          </mxGeometry>
        </mxCell>
        <mxCell id="wpcpHTcB4ovZIHiMq7sZ-12" value="&lt;div&gt;!ERRORE&lt;/div&gt;Nessun movimento.&lt;div&gt;C&#39;e&#39; un muro!&lt;/div&gt;" style="shape=parallelogram;perimeter=parallelogramPerimeter;whiteSpace=wrap;html=1;fixedSize=1;" vertex="1" parent="WIyWlLk6GJQsqaUBKTNV-1">
          <mxGeometry x="514" y="660" width="146" height="60" as="geometry" />
        </mxCell>
        <mxCell id="wpcpHTcB4ovZIHiMq7sZ-20" value="" style="edgeStyle=orthogonalEdgeStyle;rounded=0;orthogonalLoop=1;jettySize=auto;html=1;" edge="1" parent="WIyWlLk6GJQsqaUBKTNV-1" source="wpcpHTcB4ovZIHiMq7sZ-16" target="wpcpHTcB4ovZIHiMq7sZ-19">
          <mxGeometry relative="1" as="geometry" />
        </mxCell>
        <mxCell id="wpcpHTcB4ovZIHiMq7sZ-21" value="True" style="edgeLabel;html=1;align=center;verticalAlign=middle;resizable=0;points=[];" vertex="1" connectable="0" parent="wpcpHTcB4ovZIHiMq7sZ-20">
          <mxGeometry x="-0.1796" relative="1" as="geometry">
            <mxPoint as="offset" />
          </mxGeometry>
        </mxCell>
        <mxCell id="wpcpHTcB4ovZIHiMq7sZ-25" value="" style="edgeStyle=orthogonalEdgeStyle;rounded=0;orthogonalLoop=1;jettySize=auto;html=1;" edge="1" parent="WIyWlLk6GJQsqaUBKTNV-1" source="wpcpHTcB4ovZIHiMq7sZ-16" target="wpcpHTcB4ovZIHiMq7sZ-24">
          <mxGeometry relative="1" as="geometry" />
        </mxCell>
        <mxCell id="wpcpHTcB4ovZIHiMq7sZ-27" value="False" style="edgeLabel;html=1;align=center;verticalAlign=middle;resizable=0;points=[];" vertex="1" connectable="0" parent="wpcpHTcB4ovZIHiMq7sZ-25">
          <mxGeometry x="-0.2702" y="-2" relative="1" as="geometry">
            <mxPoint as="offset" />
          </mxGeometry>
        </mxCell>
        <mxCell id="wpcpHTcB4ovZIHiMq7sZ-16" value="&lt;font style=&quot;font-size: 11px;&quot;&gt;Cella di destinazione&amp;nbsp;&lt;/font&gt;&lt;div&gt;&lt;font style=&quot;font-size: 11px;&quot;&gt;==&amp;nbsp;&lt;/font&gt;&lt;/div&gt;&lt;div&gt;&lt;font style=&quot;font-size: 11px;&quot;&gt;Cella finale&lt;/font&gt;&lt;/div&gt;" style="rhombus;whiteSpace=wrap;html=1;" vertex="1" parent="WIyWlLk6GJQsqaUBKTNV-1">
          <mxGeometry x="326" y="775" width="176" height="100" as="geometry" />
        </mxCell>
        <mxCell id="wpcpHTcB4ovZIHiMq7sZ-23" value="" style="edgeStyle=orthogonalEdgeStyle;rounded=0;orthogonalLoop=1;jettySize=auto;html=1;" edge="1" parent="WIyWlLk6GJQsqaUBKTNV-1" source="wpcpHTcB4ovZIHiMq7sZ-19" target="wpcpHTcB4ovZIHiMq7sZ-22">
          <mxGeometry relative="1" as="geometry" />
        </mxCell>
        <mxCell id="wpcpHTcB4ovZIHiMq7sZ-19" value="Sei arrivato all&#39;uscita, hai vinto!" style="shape=parallelogram;perimeter=parallelogramPerimeter;whiteSpace=wrap;html=1;fixedSize=1;" vertex="1" parent="WIyWlLk6GJQsqaUBKTNV-1">
          <mxGeometry x="319" y="930" width="190" height="70" as="geometry" />
        </mxCell>
        <mxCell id="wpcpHTcB4ovZIHiMq7sZ-22" value="Fine" style="ellipse;whiteSpace=wrap;html=1;" vertex="1" parent="WIyWlLk6GJQsqaUBKTNV-1">
          <mxGeometry x="374" y="1040" width="80" height="50" as="geometry" />
        </mxCell>
        <mxCell id="wpcpHTcB4ovZIHiMq7sZ-29" value="" style="edgeStyle=orthogonalEdgeStyle;rounded=0;orthogonalLoop=1;jettySize=auto;html=1;" edge="1" parent="WIyWlLk6GJQsqaUBKTNV-1" source="wpcpHTcB4ovZIHiMq7sZ-24" target="wpcpHTcB4ovZIHiMq7sZ-28">
          <mxGeometry relative="1" as="geometry" />
        </mxCell>
        <mxCell id="wpcpHTcB4ovZIHiMq7sZ-24" value="&quot;Ti sei spostato in &quot; +Cella di destinazione+&quot;!&quot;" style="shape=parallelogram;perimeter=parallelogramPerimeter;whiteSpace=wrap;html=1;fixedSize=1;" vertex="1" parent="WIyWlLk6GJQsqaUBKTNV-1">
          <mxGeometry x="100" y="780" width="178" height="90" as="geometry" />
        </mxCell>
        <mxCell id="wpcpHTcB4ovZIHiMq7sZ-30" style="edgeStyle=orthogonalEdgeStyle;rounded=0;orthogonalLoop=1;jettySize=auto;html=1;exitX=0.5;exitY=0;exitDx=0;exitDy=0;" edge="1" parent="WIyWlLk6GJQsqaUBKTNV-1" source="wpcpHTcB4ovZIHiMq7sZ-28">
          <mxGeometry relative="1" as="geometry">
            <mxPoint x="410" y="430" as="targetPoint" />
            <Array as="points">
              <mxPoint x="190" y="620" />
              <mxPoint x="190" y="430" />
            </Array>
          </mxGeometry>
        </mxCell>
        <mxCell id="wpcpHTcB4ovZIHiMq7sZ-28" value="Cella di stato = Cella di destinazione" style="whiteSpace=wrap;html=1;" vertex="1" parent="WIyWlLk6GJQsqaUBKTNV-1">
          <mxGeometry x="129" y="555" width="120" height="60" as="geometry" />
        </mxCell>
      </root>
    </mxGraphModel>
  </diagram>
</mxfile>
